<svg width="63" height="50" viewBox="0 0 63 50" fill="none" xmlns="http://www.w3.org/2000/svg">
<rect width="62.35" height="50" rx="20" fill="#C2DCFA"/>
<path d="M26.4636 19.8068V16.3447H43.1627V19.8068H26.4636ZM26.4636 26.7311V23.2689H43.1627V26.7311H26.4636ZM26.4636 33.6553V30.1932H43.1627V33.6553H26.4636ZM21.0064 19.8068C20.491 19.8068 20.0589 19.6409 19.7103 19.3092C19.3616 18.9774 19.1873 18.5662 19.1873 18.0758C19.1873 17.5853 19.3616 17.1742 19.7103 16.8424C20.0589 16.5106 20.491 16.3447 21.0064 16.3447C21.5218 16.3447 21.9538 16.5106 22.3024 16.8424C22.6511 17.1742 22.8254 17.5853 22.8254 18.0758C22.8254 18.5662 22.6511 18.9774 22.3024 19.3092C21.9538 19.6409 21.5218 19.8068 21.0064 19.8068ZM21.0064 26.7311C20.491 26.7311 20.0589 26.5652 19.7103 26.2334C19.3616 25.9016 19.1873 25.4905 19.1873 25C19.1873 24.5095 19.3616 24.0984 19.7103 23.7666C20.0589 23.4348 20.491 23.2689 21.0064 23.2689C21.5218 23.2689 21.9538 23.4348 22.3024 23.7666C22.6511 24.0984 22.8254 24.5095 22.8254 25C22.8254 25.4905 22.6511 25.9016 22.3024 26.2334C21.9538 26.5652 21.5218 26.7311 21.0064 26.7311ZM21.0064 33.6553C20.491 33.6553 20.0589 33.4894 19.7103 33.1576C19.3616 32.8258 19.1873 32.4147 19.1873 31.9242C19.1873 31.4338 19.3616 31.0226 19.7103 30.6908C20.0589 30.3591 20.491 30.1932 21.0064 30.1932C21.5218 30.1932 21.9538 30.3591 22.3024 30.6908C22.6511 31.0226 22.8254 31.4338 22.8254 31.9242C22.8254 32.4147 22.6511 32.8258 22.3024 33.1576C21.9538 33.4894 21.5218 33.6553 21.0064 33.6553Z" fill="#1080FF"/>
</svg>
